<svg width="1977" height="363" viewBox="0 0 1977 363" fill="none" xmlns="http://www.w3.org/2000/svg">
<g clip-path="url(#clip0_6_11)">
<path d="M344 9H0V353H344V9Z" fill="#F7DF1E"/>
<path d="M231.081 277.751C238.01 289.065 247.025 297.381 262.969 297.381C276.363 297.381 284.919 290.687 284.919 281.437C284.919 270.353 276.128 266.427 261.385 259.978L253.304 256.511C229.978 246.573 214.481 234.123 214.481 207.805C214.481 183.561 232.954 165.105 261.822 165.105C282.375 165.105 297.15 172.258 307.798 190.987L282.626 207.149C277.084 197.212 271.105 193.297 261.822 193.297C252.354 193.297 246.353 199.303 246.353 207.149C246.353 216.847 252.36 220.773 266.229 226.779L274.31 230.241C301.775 242.019 317.283 254.026 317.283 281.022C317.283 310.126 294.42 326.07 263.717 326.07C233.696 326.07 214.301 311.764 204.811 293.013L231.081 277.751ZM116.889 280.553C121.967 289.562 126.587 297.179 137.693 297.179C148.313 297.179 155.013 293.024 155.013 276.867V166.951H187.338V277.304C187.338 310.775 167.714 326.01 139.069 326.01C113.187 326.01 98.1984 312.615 90.5758 296.483L116.889 280.553Z" fill="black"/>
</g>
<path d="M568.771 72.8182H601.584V227.506C601.584 241.497 598.814 253.464 593.274 263.408C587.805 273.351 580.099 280.95 570.156 286.206C560.213 291.391 548.565 293.983 535.213 293.983C522.926 293.983 511.882 291.746 502.081 287.271C492.351 282.797 484.645 276.298 478.963 267.776C473.352 259.182 470.547 248.741 470.547 236.455H503.253C503.253 242.491 504.638 247.712 507.408 252.115C510.249 256.518 514.119 259.963 519.02 262.449C523.991 264.864 529.673 266.071 536.065 266.071C543.026 266.071 548.92 264.615 553.75 261.703C558.651 258.72 562.379 254.352 564.936 248.599C567.493 242.847 568.771 235.815 568.771 227.506V72.8182ZM694.561 294.622C684.192 294.622 674.817 292.705 666.436 288.869C658.056 284.963 651.415 279.317 646.515 271.93C641.685 264.544 639.27 255.489 639.27 244.764C639.27 235.531 641.046 227.932 644.597 221.966C648.148 216 652.942 211.277 658.979 207.797C665.016 204.317 671.763 201.689 679.221 199.913C686.678 198.138 694.277 196.788 702.019 195.865C711.82 194.729 719.775 193.805 725.882 193.095C731.99 192.314 736.429 191.071 739.199 189.366C741.969 187.662 743.354 184.892 743.354 181.057V180.311C743.354 171.007 740.726 163.798 735.471 158.685C730.286 153.571 722.544 151.014 712.246 151.014C701.522 151.014 693.07 153.393 686.891 158.152C680.783 162.839 676.557 168.06 674.213 173.812L644.277 166.994C647.828 157.051 653.013 149.026 659.831 142.918C666.721 136.739 674.64 132.264 683.588 129.494C692.537 126.653 701.948 125.233 711.82 125.233C718.354 125.233 725.279 126.014 732.594 127.577C739.98 129.068 746.87 131.838 753.262 135.886C759.725 139.935 765.016 145.723 769.135 153.251C773.255 160.709 775.314 170.403 775.314 182.335V291H744.206V268.628H742.928C740.868 272.747 737.779 276.795 733.659 280.773C729.54 284.75 724.249 288.053 717.786 290.68C711.323 293.308 703.581 294.622 694.561 294.622ZM701.486 269.054C710.293 269.054 717.821 267.314 724.071 263.834C730.392 260.354 735.186 255.808 738.453 250.197C741.792 244.516 743.461 238.443 743.461 231.98V210.886C742.324 212.023 740.123 213.088 736.855 214.082C733.659 215.006 730.002 215.822 725.882 216.533C721.763 217.172 717.75 217.776 713.844 218.344C709.938 218.841 706.671 219.267 704.043 219.622C697.864 220.403 692.218 221.717 687.104 223.564C682.061 225.411 678.013 228.074 674.959 231.554C671.976 234.963 670.485 239.509 670.485 245.19C670.485 253.074 673.397 259.04 679.221 263.088C685.044 267.065 692.466 269.054 701.486 269.054ZM951.868 127.364L892.528 291H858.438L798.991 127.364H833.189L874.631 253.287H876.335L917.67 127.364H951.868ZM1024.74 294.622C1014.37 294.622 1004.99 292.705 996.612 288.869C988.232 284.963 981.591 279.317 976.69 271.93C971.861 264.544 969.446 255.489 969.446 244.764C969.446 235.531 971.222 227.932 974.773 221.966C978.324 216 983.118 211.277 989.155 207.797C995.192 204.317 1001.94 201.689 1009.4 199.913C1016.85 198.138 1024.45 196.788 1032.19 195.865C1042 194.729 1049.95 193.805 1056.06 193.095C1062.17 192.314 1066.61 191.071 1069.38 189.366C1072.14 187.662 1073.53 184.892 1073.53 181.057V180.311C1073.53 171.007 1070.9 163.798 1065.65 158.685C1060.46 153.571 1052.72 151.014 1042.42 151.014C1031.7 151.014 1023.25 153.393 1017.07 158.152C1010.96 162.839 1006.73 168.06 1004.39 173.812L974.453 166.994C978.004 157.051 983.189 149.026 990.007 142.918C996.896 136.739 1004.82 132.264 1013.76 129.494C1022.71 126.653 1032.12 125.233 1042 125.233C1048.53 125.233 1055.45 126.014 1062.77 127.577C1070.16 129.068 1077.05 131.838 1083.44 135.886C1089.9 139.935 1095.19 145.723 1099.31 153.251C1103.43 160.709 1105.49 170.403 1105.49 182.335V291H1074.38V268.628H1073.1C1071.04 272.747 1067.95 276.795 1063.84 280.773C1059.72 284.75 1054.42 288.053 1047.96 290.68C1041.5 293.308 1033.76 294.622 1024.74 294.622ZM1031.66 269.054C1040.47 269.054 1048 267.314 1054.25 263.834C1060.57 260.354 1065.36 255.808 1068.63 250.197C1071.97 244.516 1073.64 238.443 1073.64 231.98V210.886C1072.5 212.023 1070.3 213.088 1067.03 214.082C1063.84 215.006 1060.18 215.822 1056.06 216.533C1051.94 217.172 1047.93 217.776 1044.02 218.344C1040.11 218.841 1036.85 219.267 1034.22 219.622C1028.04 220.403 1022.39 221.717 1017.28 223.564C1012.24 225.411 1008.19 228.074 1005.13 231.554C1002.15 234.963 1000.66 239.509 1000.66 245.19C1000.66 253.074 1003.57 259.04 1009.4 263.088C1015.22 267.065 1022.64 269.054 1031.66 269.054ZM1269.47 130.134C1268.34 120.048 1263.65 112.236 1255.41 106.696C1247.17 101.085 1236.8 98.2798 1224.3 98.2798C1215.35 98.2798 1207.61 99.7003 1201.08 102.541C1194.54 105.311 1189.47 109.146 1185.84 114.047C1182.29 118.876 1180.52 124.381 1180.52 130.56C1180.52 135.744 1181.72 140.219 1184.14 143.983C1186.62 147.747 1189.86 150.908 1193.83 153.464C1197.88 155.95 1202.21 158.045 1206.83 159.75C1211.45 161.384 1215.89 162.733 1220.15 163.798L1241.45 169.338C1248.41 171.043 1255.55 173.351 1262.87 176.263C1270.18 179.175 1276.97 183.01 1283.22 187.768C1289.47 192.527 1294.51 198.422 1298.34 205.453C1302.25 212.484 1304.2 220.901 1304.2 230.702C1304.2 243.06 1301.01 254.033 1294.61 263.621C1288.29 273.209 1279.1 280.773 1267.02 286.312C1255.02 291.852 1240.5 294.622 1223.45 294.622C1207.11 294.622 1192.98 292.03 1181.05 286.845C1169.12 281.661 1159.78 274.31 1153.03 264.793C1146.28 255.205 1142.56 243.841 1141.84 230.702H1174.87C1175.51 238.585 1178.07 245.155 1182.54 250.411C1187.09 255.595 1192.87 259.466 1199.91 262.023C1207.01 264.509 1214.79 265.751 1223.24 265.751C1232.54 265.751 1240.81 264.295 1248.06 261.384C1255.37 258.401 1261.13 254.281 1265.32 249.026C1269.51 243.699 1271.6 237.484 1271.6 230.382C1271.6 223.919 1269.76 218.628 1266.06 214.509C1262.44 210.389 1257.51 206.98 1251.26 204.281C1245.08 201.582 1238.08 199.203 1230.27 197.143L1204.49 190.112C1187.02 185.354 1173.17 178.358 1162.94 169.125C1152.78 159.892 1147.7 147.676 1147.7 132.477C1147.7 119.906 1151.11 108.933 1157.93 99.5582C1164.75 90.1832 1173.98 82.9034 1185.63 77.7188C1197.28 72.4631 1210.42 69.8352 1225.05 69.8352C1239.82 69.8352 1252.85 72.4276 1264.15 77.6122C1275.51 82.7969 1284.46 89.9347 1290.99 99.0256C1297.53 108.045 1300.94 118.415 1301.22 130.134H1269.47ZM1409.91 294.303C1394.07 294.303 1380.44 290.716 1369 283.543C1357.64 276.298 1348.9 266.32 1342.79 253.607C1336.69 240.893 1333.63 226.334 1333.63 209.928C1333.63 193.308 1336.76 178.642 1343.01 165.929C1349.26 153.145 1358.06 143.166 1369.43 135.993C1380.79 128.82 1394.18 125.233 1409.59 125.233C1422.02 125.233 1433.1 127.541 1442.83 132.158C1452.56 136.703 1460.41 143.095 1466.37 151.334C1472.41 159.572 1476 169.196 1477.13 180.205H1446.13C1444.43 172.534 1440.52 165.929 1434.41 160.389C1428.38 154.849 1420.28 152.08 1410.12 152.08C1401.25 152.08 1393.47 154.423 1386.79 159.111C1380.19 163.727 1375.04 170.332 1371.35 178.926C1367.65 187.449 1365.81 197.534 1365.81 209.182C1365.81 221.114 1367.62 231.412 1371.24 240.077C1374.86 248.741 1379.98 255.453 1386.58 260.212C1393.26 264.97 1401.1 267.349 1410.12 267.349C1416.16 267.349 1421.63 266.249 1426.53 264.047C1431.5 261.774 1435.66 258.543 1439 254.352C1442.4 250.162 1444.78 245.119 1446.13 239.224H1477.13C1476 249.807 1472.55 259.253 1466.8 267.562C1461.05 275.872 1453.34 282.406 1443.68 287.165C1434.09 291.923 1422.84 294.303 1409.91 294.303ZM1511.2 291V127.364H1541.99V153.358H1543.69C1546.67 144.551 1551.93 137.626 1559.46 132.584C1567.06 127.47 1575.65 124.913 1585.24 124.913C1587.23 124.913 1589.57 124.984 1592.27 125.126C1595.04 125.268 1597.21 125.446 1598.77 125.659V156.128C1597.49 155.773 1595.22 155.382 1591.95 154.956C1588.68 154.459 1585.42 154.21 1582.15 154.21C1574.62 154.21 1567.91 155.808 1562.02 159.004C1556.19 162.129 1551.57 166.497 1548.17 172.108C1544.76 177.648 1543.05 183.969 1543.05 191.071V291H1511.2ZM1626.34 291V127.364H1658.19V291H1626.34ZM1642.42 102.115C1636.88 102.115 1632.12 100.268 1628.15 96.5753C1624.24 92.8111 1622.29 88.3366 1622.29 83.152C1622.29 77.8963 1624.24 73.4219 1628.15 69.7287C1632.12 65.9645 1636.88 64.0824 1642.42 64.0824C1647.96 64.0824 1652.68 65.9645 1656.59 69.7287C1660.57 73.4219 1662.56 77.8963 1662.56 83.152C1662.56 88.3366 1660.57 92.8111 1656.59 96.5753C1652.68 100.268 1647.96 102.115 1642.42 102.115ZM1701.04 352.364V127.364H1732.15V153.891H1734.81C1736.66 150.482 1739.32 146.54 1742.8 142.065C1746.28 137.591 1751.11 133.685 1757.29 130.347C1763.47 126.938 1771.64 125.233 1781.8 125.233C1795.01 125.233 1806.8 128.571 1817.16 135.247C1827.53 141.923 1835.67 151.547 1841.56 164.118C1847.53 176.689 1850.51 191.817 1850.51 209.501C1850.51 227.186 1847.56 242.349 1841.67 254.991C1835.77 267.562 1827.68 277.257 1817.38 284.075C1807.08 290.822 1795.32 294.196 1782.11 294.196C1772.17 294.196 1764.04 292.527 1757.72 289.189C1751.47 285.851 1746.57 281.945 1743.02 277.47C1739.47 272.996 1736.73 269.018 1734.81 265.538H1732.9V352.364H1701.04ZM1732.26 209.182C1732.26 220.687 1733.93 230.773 1737.26 239.438C1740.6 248.102 1745.43 254.885 1751.75 259.786C1758.07 264.615 1765.81 267.03 1774.98 267.03C1784.49 267.03 1792.45 264.509 1798.84 259.466C1805.23 254.352 1810.06 247.428 1813.33 238.692C1816.67 229.956 1818.34 220.119 1818.34 209.182C1818.34 198.386 1816.7 188.692 1813.44 180.098C1810.24 171.504 1805.41 164.722 1798.95 159.75C1792.56 154.778 1784.56 152.293 1774.98 152.293C1765.74 152.293 1757.93 154.672 1751.54 159.43C1745.22 164.189 1740.42 170.83 1737.16 179.352C1733.89 187.875 1732.26 197.818 1732.26 209.182ZM1962.58 127.364V152.932H1873.2V127.364H1962.58ZM1897.17 88.1591H1929.03V242.953C1929.03 249.132 1929.95 253.784 1931.8 256.909C1933.64 259.963 1936.02 262.058 1938.93 263.195C1941.92 264.26 1945.15 264.793 1948.63 264.793C1951.18 264.793 1953.42 264.615 1955.34 264.26C1957.26 263.905 1958.75 263.621 1959.81 263.408L1965.57 289.722C1963.72 290.432 1961.09 291.142 1957.68 291.852C1954.27 292.634 1950.01 293.06 1944.9 293.131C1936.52 293.273 1928.71 291.781 1921.46 288.656C1914.22 285.531 1908.36 280.702 1903.88 274.168C1899.41 267.634 1897.17 259.43 1897.17 249.558V88.1591Z" fill="#737373"/>
<defs>
<clipPath id="clip0_6_11">
<rect y="9" width="344" height="344" fill="white"/>
</clipPath>
</defs>
</svg>
